<svg width="32" height="32" viewBox="0 0 32 32" fill="none" xmlns="http://www.w3.org/2000/svg">
<mask id="path-1-inside-1_2926_227169" fill="white">
<path d="M5.12405e-10 8C6.06733e-10 3.58172 3.58172 0 8 1.70796e-10L24 5.12389e-10C28.4183 6.06718e-10 32 3.58172 32 8L32 24C32 28.4183 28.4183 32 24 32L8 32C3.58172 32 0 28.4183 1.70812e-10 24L5.12405e-10 8Z"/>
</mask>
<path d="M5.12405e-10 8C6.06733e-10 3.58172 3.58172 0 8 1.70796e-10L24 5.12389e-10C28.4183 6.06718e-10 32 3.58172 32 8L32 24C32 28.4183 28.4183 32 24 32L8 32C3.58172 32 0 28.4183 1.70812e-10 24L5.12405e-10 8Z" fill="#F5F5F6"/>
<path d="M6.83201e-10 0L32 6.83186e-10L6.83201e-10 0ZM32 24C32 28.9706 27.9706 33 23 33L9 33C4.02944 33 0 28.9706 1.70812e-10 24C0 27.866 3.58172 31 8 31L24 31C28.4183 31 32 27.866 32 24ZM0 32L6.83201e-10 0L0 32ZM32 6.83186e-10L32 32L32 6.83186e-10Z" fill="#99A0AE" fill-opacity="0.4" mask="url(#path-1-inside-1_2926_227169)"/>
<path d="M11.8333 20.1654L20.1667 11.832" stroke="#066EFF" stroke-width="1.66667" stroke-linecap="round" stroke-linejoin="round"/>
<path d="M11.8333 11.832H20.1667V20.1654" stroke="#066EFF" stroke-width="1.66667" stroke-linecap="round" stroke-linejoin="round"/>
</svg>
