<svg width="40" height="40" viewBox="0 0 40 40" fill="none" xmlns="http://www.w3.org/2000/svg">
<path d="M6.749e-10 8.38964C7.73823e-10 3.75617 3.75617 0 8.38964 1.79115e-10L31.6104 6.74867e-10C36.2438 7.7379e-10 40 3.75617 40 8.38964L40 31.6104C40 36.2438 36.2438 40 31.6104 40L8.38964 40C3.75617 40 0 36.2438 1.79148e-10 31.6104L6.749e-10 8.38964Z" fill="#1FC16B" fill-opacity="0.24"/>
<path d="M30 19.1756V20.0956C29.9988 22.252 29.3005 24.3502 28.0093 26.0774C26.7182 27.8045 24.9033 29.068 22.8354 29.6795C20.7674 30.2909 18.5573 30.2175 16.5345 29.4702C14.5117 28.7228 12.7847 27.3417 11.611 25.5326C10.4373 23.7236 9.87979 21.5836 10.0217 19.4319C10.1636 17.2801 10.9972 15.2319 12.3983 13.5926C13.7994 11.9534 15.6928 10.8109 17.7962 10.3357C19.8996 9.86048 22.1003 10.0779 24.07 10.9556" stroke="#1DAF61" stroke-width="2" stroke-linecap="round" stroke-linejoin="round"/>
<path d="M30 12.0938L20 22.1038L17 19.1038" stroke="#1DAF61" stroke-width="2" stroke-linecap="round" stroke-linejoin="round"/>
</svg>
