<svg width="40" height="40" viewBox="0 0 40 40" fill="none" xmlns="http://www.w3.org/2000/svg">
<path d="M6.749e-10 8.38964C7.73823e-10 3.75617 3.75617 0 8.38964 1.79115e-10L31.6104 6.74867e-10C36.2438 7.7379e-10 40 3.75617 40 8.38964L40 31.6104C40 36.2438 36.2438 40 31.6104 40L8.38964 40C3.75617 40 0 36.2438 1.79148e-10 31.6104L6.749e-10 8.38964Z" fill="#FF9147" fill-opacity="0.16"/>
<g clip-path="url(#clip0_2926_231384)">
<path d="M8.81684 20.267C8.82523 20.2805 8.83703 20.2917 8.85107 20.2992C8.86511 20.3068 8.88089 20.3106 8.89684 20.3102H29.5036C29.5196 20.3106 29.5354 20.3068 29.5494 20.2992C29.5634 20.2917 29.5752 20.2805 29.5836 20.267C29.5932 20.2526 29.5989 20.2361 29.6002 20.2189C29.6014 20.2017 29.5982 20.1845 29.5908 20.169L28.628 18.0518C28.6088 18.0096 28.5778 17.9738 28.5388 17.9487C28.4998 17.9236 28.4544 17.9102 28.408 17.9102H23.6V18.7102H24.8C24.9061 18.7102 25.0079 18.7523 25.0829 18.8273C25.1579 18.9023 25.2 19.0041 25.2 19.1102C25.2 19.2162 25.1579 19.318 25.0829 19.393C25.0079 19.468 24.9061 19.5102 24.8 19.5102H13.6C13.494 19.5102 13.3922 19.468 13.3172 19.393C13.2422 19.318 13.2 19.2162 13.2 19.1102C13.2 19.0041 13.2422 18.9023 13.3172 18.8273C13.3922 18.7523 13.494 18.7102 13.6 18.7102H14.8V17.9102H9.99244C9.94601 17.9102 9.90058 17.9237 9.86157 17.9488C9.82257 17.974 9.79162 18.0099 9.77244 18.0522L8.80844 20.1722C8.80155 20.1873 8.79871 20.2041 8.80018 20.2207C8.80165 20.2373 8.80739 20.2532 8.81684 20.267Z" fill="#FF9A68"/>
<path d="M20 9.90882H24C24.1983 9.90553 24.394 9.95379 24.5681 10.0489C24.7421 10.1439 24.8884 10.2826 24.9928 10.4512C25.0903 10.5983 25.1533 10.7655 25.1772 10.9403C25.201 11.1152 25.1851 11.2931 25.1306 11.4609C25.076 11.6287 24.9843 11.7821 24.8622 11.9095C24.7402 12.0369 24.5909 12.1351 24.4256 12.1968L21.874 13.1328C21.8093 13.1556 21.7502 13.192 21.7007 13.2395C21.6512 13.2871 21.6125 13.3447 21.5872 13.4084C21.5608 13.4743 21.5485 13.545 21.5513 13.6159C21.554 13.6869 21.5717 13.7564 21.6032 13.82C21.6536 13.9304 21.7447 14.017 21.8575 14.0618C21.9703 14.1065 22.0961 14.1059 22.2084 14.06L25.8624 12.7208C25.8891 12.7111 25.9167 12.7042 25.9448 12.7L28.4 12.3604V9.05322L23.588 8.32082C23.3717 8.28883 23.1507 8.31994 22.9516 8.41042L20 9.90882Z" fill="#FF9A68"/>
<path d="M10 30.7086C10 30.8147 10.0421 30.9164 10.1172 30.9914C10.1922 31.0665 10.2939 31.1086 10.4 31.1086H28C28.1061 31.1086 28.2078 31.0665 28.2828 30.9914C28.3579 30.9164 28.4 30.8147 28.4 30.7086V24.3086H10V30.7086Z" fill="#FF9A68"/>
<path d="M8.80005 23.5097H29.6V21.0977C29.5682 21.1035 29.536 21.1075 29.5037 21.1097H8.89645C8.86412 21.1075 8.83193 21.1035 8.80005 21.0977V23.5097Z" fill="#FF9A68"/>
<path d="M15.6 18.7109H22.8V14.7065L22.48 14.8229C22.1825 14.934 21.8544 14.9304 21.5595 14.8128C21.2646 14.6951 21.0241 14.4719 20.8848 14.1865C20.8035 14.0215 20.7579 13.8411 20.751 13.6572C20.7441 13.4733 20.776 13.29 20.8448 13.1193C20.9124 12.9517 21.0146 12.8002 21.1448 12.6747C21.2749 12.5492 21.43 12.4525 21.6 12.3909L22.8 11.9509V10.7109H15.6V18.7109Z" fill="#FF9A68"/>
<path d="M29.2 8.71094V12.3109C29.2 12.417 29.2421 12.5188 29.3171 12.5938C29.3921 12.6688 29.4939 12.7109 29.6 12.7109H30.8C30.906 12.7109 31.0078 12.6688 31.0828 12.5938C31.1578 12.5188 31.2 12.417 31.2 12.3109V9.11094C31.2 9.00485 31.1578 8.90311 31.0828 8.82809C31.0078 8.75308 30.906 8.71094 30.8 8.71094H29.2Z" fill="#FF9A68"/>
</g>
<defs>
<clipPath id="clip0_2926_231384">
<rect width="24" height="24" fill="white" transform="translate(8 7.91016)"/>
</clipPath>
</defs>
</svg>
