<svg width="32" height="32" viewBox="0 0 32 32" fill="none" xmlns="http://www.w3.org/2000/svg">
<g clip-path="url(#clip0_2597_219812)">
<path d="M25.7032 18.4773L19.9744 16.0517C19.8711 16 19.7163 16 19.613 16.0517C19.5097 16.1034 19.4066 16.2064 19.4066 16.3098L16.0518 29.8838L12.6452 16.3098C12.5936 16.2064 12.5419 16.1034 12.4388 16.0517C12.3355 16 12.2324 16 12.0775 16.0517L6.40004 18.2193C5.62584 18.529 5.16138 19.1485 5.16138 19.871V31.5872C5.16138 31.7936 5.36778 32 5.57418 32H15.8453H16.1034H26.3743C26.5807 32 26.7871 31.8453 26.7871 31.5872V20.1291C26.8905 19.4582 26.426 18.7871 25.7032 18.4773Z" fill="#335CFF"/>
<path d="M17.8581 17.2388C18.1162 16.826 18.0645 16.2582 17.7031 15.8968C17.4967 15.6387 17.187 15.5356 16.8258 15.5356H15.2774C14.9677 15.5356 14.6063 15.6904 14.3999 15.8968C14.0902 16.2582 13.9871 16.7743 14.2452 17.2388L14.658 17.8582C14.8644 18.2194 14.9677 18.5808 14.9161 18.9936L14.658 21.6775L15.4322 23.7937C15.5355 24.0518 15.7419 24.2065 16.0516 24.2065C16.3614 24.2065 16.5678 24.0518 16.6708 23.7937L17.445 21.6775L17.1356 19.0452C17.0839 18.6324 17.187 18.2194 17.3936 17.9099L17.8581 17.2388Z" fill="#335CFF"/>
<path d="M16.0517 14.3483C19.4582 14.3483 22.2453 11.5612 22.2453 8.15474V6.19355C22.2453 2.78705 19.4582 0 16.0517 0C12.6452 0 9.85815 2.78705 9.85815 6.19355V8.15474C9.85815 11.5612 12.6452 14.3483 16.0517 14.3483Z" fill="#335CFF"/>
</g>
<defs>
<clipPath id="clip0_2597_219812">
<rect width="32" height="32" fill="white"/>
</clipPath>
</defs>
</svg>
