<svg width="48" height="48" viewBox="0 0 48 48" fill="none" xmlns="http://www.w3.org/2000/svg">
<path d="M22.04 39H15C13.76 39 12.66 38.96 11.68 38.82C6.42 38.24 5 35.76 5 29V19C5 12.24 6.42 9.76 11.68 9.18C12.66 9.04 13.76 9 15 9H21.92" stroke="#066EFF" stroke-width="3.6" stroke-linecap="round" stroke-linejoin="round"/>
<path d="M30.04 9H33C34.24 9 35.34 9.04 36.32 9.18C41.58 9.76 43 12.24 43 19V29C43 35.76 41.58 38.24 36.32 38.82C35.34 38.96 34.24 39 33 39H30.04" stroke="#066EFF" stroke-width="3.6" stroke-linecap="round" stroke-linejoin="round"/>
<path d="M30 4V44" stroke="#066EFF" stroke-width="3.6" stroke-linecap="round" stroke-linejoin="round"/>
<path d="M22.1892 24H22.2072" stroke="#066EFF" stroke-width="4.8" stroke-linecap="round" stroke-linejoin="round"/>
<path d="M14.1892 24H14.2072" stroke="#066EFF" stroke-width="4.8" stroke-linecap="round" stroke-linejoin="round"/>
</svg>
