<svg width="20" height="20" viewBox="0 0 20 20" fill="none" xmlns="http://www.w3.org/2000/svg">
<path d="M10 5.36719V8.14219" stroke="#666666" stroke-width="1.5" stroke-miterlimit="10" stroke-linecap="round"/>
<path d="M10.0167 1.66406C6.95001 1.66406 4.46667 4.1474 4.46667 7.21406V8.96406C4.46667 9.53073 4.23334 10.3807 3.94167 10.8641L2.88334 12.6307C2.23334 13.7224 2.68334 14.9391 3.88334 15.3391C7.86667 16.6641 12.175 16.6641 16.1583 15.3391C17.2833 14.9641 17.7667 13.6474 17.1583 12.6307L16.1 10.8641C15.8083 10.3807 15.575 9.5224 15.575 8.96406V7.21406C15.5667 4.16406 13.0667 1.66406 10.0167 1.66406Z" stroke="#666666" stroke-width="1.5" stroke-miterlimit="10" stroke-linecap="round"/>
<path d="M12.775 15.6797C12.775 17.2047 11.525 18.4547 10 18.4547C9.24167 18.4547 8.54167 18.138 8.04167 17.638C7.54167 17.138 7.22501 16.438 7.22501 15.6797" stroke="#666666" stroke-width="1.5" stroke-miterlimit="10"/>
</svg>
