<svg width="32" height="32" viewBox="0 0 32 32" fill="none" xmlns="http://www.w3.org/2000/svg">
<path d="M11.9999 13.3333C13.4727 13.3333 14.6666 12.1394 14.6666 10.6667C14.6666 9.19391 13.4727 8 11.9999 8C10.5272 8 9.33325 9.19391 9.33325 10.6667C9.33325 12.1394 10.5272 13.3333 11.9999 13.3333Z" stroke="white" stroke-width="2" stroke-linecap="round" stroke-linejoin="round"/>
<path d="M17.3334 2.66797H12.0001C5.33341 2.66797 2.66675 5.33464 2.66675 12.0013V20.0013C2.66675 26.668 5.33341 29.3346 12.0001 29.3346H20.0001C26.6667 29.3346 29.3334 26.668 29.3334 20.0013V13.3346" stroke="white" stroke-width="2" stroke-linecap="round" stroke-linejoin="round"/>
<path d="M21 6.66797H28.3333" stroke="white" stroke-width="2" stroke-linecap="round"/>
<path d="M24.6667 10.3333V3" stroke="white" stroke-width="2" stroke-linecap="round"/>
<path d="M3.56006 25.2661L10.1334 20.8528C11.1867 20.1461 12.7067 20.2261 13.6534 21.0394L14.0934 21.4261C15.1334 22.3194 16.8134 22.3194 17.8534 21.4261L23.4001 16.6661C24.4401 15.7728 26.1201 15.7728 27.1601 16.6661L29.3334 18.5328" stroke="white" stroke-width="2" stroke-linecap="round" stroke-linejoin="round"/>
</svg>
