<svg width="32" height="32" viewBox="0 0 32 32" fill="none" xmlns="http://www.w3.org/2000/svg">
<path d="M5.39966e-10 6.71171C6.19104e-10 3.00494 3.00493 0 6.71171 1.43292e-10L25.2883 5.39894e-10C28.9951 6.19032e-10 32 3.00493 32 6.71171L32 25.2883C32 28.9951 28.9951 32 25.2883 32L6.71171 32C3.00494 32 0 28.9951 1.43364e-10 25.2883L5.39966e-10 6.71171Z" fill="#7D52F4"/>
<path d="M13.8035 11.3982L15.7148 13.3094C15.9979 13.5926 16.5642 13.5926 16.8474 13.3094L18.7586 11.3982C19.2541 10.9027 18.9002 9.98242 18.1923 9.98242H14.3698C13.6619 10.0532 13.308 10.9027 13.8035 11.3982Z" stroke="white" stroke-width="1.06181" stroke-miterlimit="10" stroke-linecap="round" stroke-linejoin="round"/>
<path d="M13.8035 21.1666L15.7148 19.2553C15.9979 18.9722 16.5642 18.9722 16.8474 19.2553L18.7586 21.1666C19.2541 21.6621 18.9002 22.5823 18.1923 22.5823H14.3698C13.6619 22.5116 13.308 21.6621 13.8035 21.1666Z" stroke="white" stroke-width="1.06181" stroke-miterlimit="10" stroke-linecap="round" stroke-linejoin="round"/>
<path d="M9.34384 15.9278L10.9012 13.4502C11.1135 13.0255 11.6798 12.9547 12.0338 13.3086L14.5113 15.7862C14.7945 16.0694 14.7945 16.4941 14.5113 16.7772L12.0338 19.2548C11.6798 19.6087 11.1843 19.538 10.9012 19.1132L9.34384 16.6357C9.13148 16.4233 9.13148 16.1402 9.34384 15.9278Z" stroke="white" stroke-width="1.06181" stroke-miterlimit="10" stroke-linecap="round" stroke-linejoin="round"/>
<path d="M23.2182 15.9286L21.6609 13.4511C21.4485 13.0971 20.8822 13.0263 20.5283 13.3095L18.0507 15.787C17.7676 16.0702 17.7676 16.4949 18.0507 16.7781L20.5283 19.2556C20.8822 19.6096 21.3778 19.5388 21.6609 19.1141L23.2182 16.6365C23.4306 16.4241 23.4306 16.141 23.2182 15.9286Z" stroke="white" stroke-width="1.06181" stroke-miterlimit="10" stroke-linecap="round" stroke-linejoin="round"/>
</svg>
