<svg width="40" height="40" viewBox="0 0 40 40" fill="none" xmlns="http://www.w3.org/2000/svg">
<path d="M6.749e-10 8.38964C7.73823e-10 3.75617 3.75617 0 8.38964 1.79115e-10L31.6104 6.74867e-10C36.2438 7.7379e-10 40 3.75617 40 8.38964L40 31.6104C40 36.2438 36.2438 40 31.6104 40L8.38964 40C3.75617 40 0 36.2438 1.79148e-10 31.6104L6.749e-10 8.38964Z" fill="#FB4BA3" fill-opacity="0.24"/>
<path d="M20 30.0938C25.5228 30.0938 30 25.6166 30 20.0938C30 14.5709 25.5228 10.0938 20 10.0938C14.4772 10.0938 10 14.5709 10 20.0938C10 25.6166 14.4772 30.0938 20 30.0938Z" stroke="#E9358F" stroke-width="2" stroke-linecap="round" stroke-linejoin="round"/>
<path d="M23 17.0938L17 23.0938" stroke="#E9358F" stroke-width="2" stroke-linecap="round" stroke-linejoin="round"/>
<path d="M17 17.0938L23 23.0938" stroke="#E9358F" stroke-width="2" stroke-linecap="round" stroke-linejoin="round"/>
</svg>
