<svg width="20" height="20" viewBox="0 0 20 20" fill="none" xmlns="http://www.w3.org/2000/svg">
<path d="M1.66666 10.5078H15.8333" stroke="#666666" stroke-width="1.5" stroke-miterlimit="10" stroke-linecap="round" stroke-linejoin="round"/>
<path d="M15.8333 8.56927V14.5276C15.8083 16.9026 15.1583 17.5026 12.6833 17.5026H4.81669C2.30002 17.5026 1.66666 16.8776 1.66666 14.3943V8.56927C1.66666 6.31927 2.19166 5.59427 4.16666 5.4776C4.36666 5.46927 4.58336 5.46094 4.81669 5.46094H12.6833C15.2 5.46094 15.8333 6.08594 15.8333 8.56927Z" stroke="#666666" stroke-width="1.5" stroke-linecap="round" stroke-linejoin="round"/>
<path d="M18.3333 5.60833V11.4333C18.3333 13.6833 17.8083 14.4083 15.8333 14.525V8.56667C15.8333 6.08333 15.2 5.45833 12.6833 5.45833H4.81669C4.58336 5.45833 4.36666 5.46667 4.16666 5.475C4.19166 3.1 4.84169 2.5 7.31669 2.5H15.1833C17.7 2.5 18.3333 3.125 18.3333 5.60833Z" stroke="#666666" stroke-width="1.5" stroke-linecap="round" stroke-linejoin="round"/>
<path d="M4.375 14.8438H5.80831" stroke="#666666" stroke-width="1.5" stroke-miterlimit="10" stroke-linecap="round" stroke-linejoin="round"/>
<path d="M7.59165 14.8438H10.4583" stroke="#666666" stroke-width="1.5" stroke-miterlimit="10" stroke-linecap="round" stroke-linejoin="round"/>
</svg>
