<svg width="20" height="20" viewBox="0 0 20 20" fill="none" xmlns="http://www.w3.org/2000/svg">
<path d="M12.6833 5.46094H4.81666C4.58333 5.46094 4.36666 5.46927 4.16666 5.4776C2.19166 5.59427 1.66666 6.31927 1.66666 8.56927V9.0526C1.66666 9.51094 2.04166 9.88594 2.5 9.88594H15C15.4583 9.88594 15.8333 9.51094 15.8333 9.0526V8.56927C15.8333 6.08594 15.2 5.46094 12.6833 5.46094Z" fill="#1B1B1B"/>
<path d="M2.5 11.1328C2.04166 11.1328 1.66666 11.5078 1.66666 11.9661V14.3911C1.66666 16.8745 2.3 17.4995 4.81666 17.4995H12.6833C15.1583 17.4995 15.8083 16.8995 15.8333 14.5245V11.9661C15.8333 11.5078 15.4583 11.1328 15 11.1328H2.5ZM5.8 15.4661H4.375C4.03333 15.4661 3.75 15.1828 3.75 14.8411C3.75 14.4995 4.03333 14.2161 4.375 14.2161H5.80833C6.15 14.2161 6.43333 14.4995 6.43333 14.8411C6.43333 15.1828 6.15 15.4661 5.8 15.4661ZM10.4583 15.4661H7.59166C7.25 15.4661 6.96666 15.1828 6.96666 14.8411C6.96666 14.4995 7.25 14.2161 7.59166 14.2161H10.4583C10.8 14.2161 11.0833 14.4995 11.0833 14.8411C11.0833 15.1828 10.8083 15.4661 10.4583 15.4661Z" fill="#1B1B1B"/>
<path d="M18.3333 11.1083V6.74167C18.3333 4.13333 16.8417 3 14.5917 3H7.15C6.51667 3 5.95 3.09167 5.45 3.28333C5.05833 3.425 4.70833 3.63333 4.425 3.90833C4.275 4.05 4.39167 4.28333 4.60833 4.28333H13.6667C15.5417 4.28333 17.0583 5.8 17.0583 7.675V13.65C17.0583 13.8583 17.2833 13.975 17.4333 13.825C18.0083 13.2167 18.3333 12.325 18.3333 11.1083Z" fill="#1B1B1B"/>
</svg>
