<svg width="20" height="20" viewBox="0 0 20 20" fill="none" xmlns="http://www.w3.org/2000/svg">
<path d="M17.2583 6.76689V14.6086C17.2583 16.6586 15.5833 18.3336 13.5333 18.3336H6.46667C4.41667 18.3336 2.74167 16.6586 2.74167 14.6086V6.76689C2.74167 5.34189 3.54167 4.10023 4.71667 3.47523C5.125 3.25856 5.63334 3.55023 5.63334 4.01689C5.63334 5.34189 6.71667 6.42523 8.04167 6.42523H11.9583C13.2833 6.42523 14.3667 5.34189 14.3667 4.01689C14.3667 3.55023 14.8667 3.25856 15.2833 3.47523C16.4583 4.10023 17.2583 5.34189 17.2583 6.76689Z" fill="#1B1B1B"/>
<path d="M11.9583 1.66797H8.04167C7.175 1.66797 6.46667 2.36797 6.46667 3.23464V4.01797C6.46667 4.88464 7.16667 5.58464 8.03333 5.58464H11.9583C12.825 5.58464 13.525 4.88464 13.525 4.01797V3.23464C13.5333 2.36797 12.825 1.66797 11.9583 1.66797Z" fill="#1B1B1B"/>
</svg>
