<svg width="20" height="20" viewBox="0 0 20 20" fill="none" xmlns="http://www.w3.org/2000/svg">
<path d="M13.3333 1.66602H6.66667C3.75 1.66602 2.5 3.33268 2.5 5.83268V14.166C2.5 16.666 3.75 18.3327 6.66667 18.3327H13.3333C16.25 18.3327 17.5 16.666 17.5 14.166V5.83268C17.5 3.33268 16.25 1.66602 13.3333 1.66602ZM8.775 13.7243C9.01667 13.966 9.01667 14.366 8.775 14.6077C8.65 14.7327 8.49167 14.791 8.33333 14.791C8.175 14.791 8.01667 14.7327 7.89167 14.6077L6.225 12.941C5.98333 12.6993 5.98333 12.2993 6.225 12.0577L7.89167 10.391C8.13333 10.1493 8.53333 10.1493 8.775 10.391C9.01667 10.6327 9.01667 11.0327 8.775 11.2743L7.55 12.4993L8.775 13.7243ZM13.775 12.941L12.1083 14.6077C11.9833 14.7327 11.825 14.791 11.6667 14.791C11.5083 14.791 11.35 14.7327 11.225 14.6077C10.9833 14.366 10.9833 13.966 11.225 13.7243L12.45 12.4993L11.225 11.2743C10.9833 11.0327 10.9833 10.6327 11.225 10.391C11.4667 10.1493 11.8667 10.1493 12.1083 10.391L13.775 12.0577C14.0167 12.2993 14.0167 12.6993 13.775 12.941ZM15.4167 7.70768H13.75C12.4833 7.70768 11.4583 6.68268 11.4583 5.41602V3.74935C11.4583 3.40768 11.7417 3.12435 12.0833 3.12435C12.425 3.12435 12.7083 3.40768 12.7083 3.74935V5.41602C12.7083 5.99102 13.175 6.45768 13.75 6.45768H15.4167C15.7583 6.45768 16.0417 6.74102 16.0417 7.08268C16.0417 7.42435 15.7583 7.70768 15.4167 7.70768Z" fill="#1B1B1B"/>
</svg>
