<svg width="26" height="26" viewBox="0 0 26 26" fill="none" xmlns="http://www.w3.org/2000/svg">
<path d="M9.6749 10.7502C10.8623 10.7502 11.8249 9.78761 11.8249 8.6002C11.8249 7.41278 10.8623 6.4502 9.6749 6.4502C8.48749 6.4502 7.5249 7.41278 7.5249 8.6002C7.5249 9.78761 8.48749 10.7502 9.6749 10.7502Z" stroke="#066EFF" stroke-width="1.6125" stroke-linecap="round" stroke-linejoin="round"/>
<path d="M13.9749 2.1499H9.6749C4.2999 2.1499 2.1499 4.2999 2.1499 9.6749V16.1249C2.1499 21.4999 4.2999 23.6499 9.6749 23.6499H16.1249C21.4999 23.6499 23.6499 21.4999 23.6499 16.1249V10.7499" stroke="#066EFF" stroke-width="1.6125" stroke-linecap="round" stroke-linejoin="round"/>
<path d="M16.9312 5.375H22.8437" stroke="#066EFF" stroke-width="1.6125" stroke-linecap="round"/>
<path d="M19.8877 8.33145V2.41895" stroke="#066EFF" stroke-width="1.6125" stroke-linecap="round"/>
<path d="M2.87012 20.3714L8.16987 16.8131C9.01912 16.2434 10.2446 16.3079 11.0079 16.9636L11.3626 17.2754C12.2011 17.9956 13.5556 17.9956 14.3941 17.2754L18.8661 13.4376C19.7046 12.7174 21.0591 12.7174 21.8976 13.4376L23.6499 14.9426" stroke="#066EFF" stroke-width="1.6125" stroke-linecap="round" stroke-linejoin="round"/>
</svg>
