<svg width="20" height="20" viewBox="0 0 20 20" fill="none" xmlns="http://www.w3.org/2000/svg">
<path d="M16.5755 7.95302C16.4339 7.67389 16.1467 7.49811 15.8333 7.49811H10.9611L11.6585 2.61611C11.7122 2.23688 11.5015 1.86985 11.1467 1.72581C10.7918 1.58095 10.3841 1.69733 10.1595 2.0082L3.49285 11.1749C3.30811 11.428 3.28207 11.7632 3.42449 12.0432C3.56609 12.3223 3.85336 12.4981 4.16667 12.4981H9.03891L8.34148 17.3801C8.28777 17.7593 8.49854 18.1264 8.85336 18.2704C8.95509 18.3119 9.06169 18.3314 9.16667 18.3314C9.42709 18.3314 9.68018 18.2094 9.8405 17.988L16.5072 8.82135C16.6919 8.56826 16.7179 8.23297 16.5755 7.95302Z" fill="url(#paint0_linear_3714_96164)"/>
<defs>
<linearGradient id="paint0_linear_3714_96164" x1="11" y1="-0.804688" x2="6" y2="19.6953" gradientUnits="userSpaceOnUse">
<stop stop-color="#066EFF"/>
<stop offset="1" stop-color="#66AAFF"/>
</linearGradient>
</defs>
</svg>
