<svg width="20" height="20" viewBox="0 0 20 20" fill="none" xmlns="http://www.w3.org/2000/svg">
<path d="M2.26123 4.00406L2.26123 15.915C2.26123 17.059 3.20334 18.0011 4.34733 18.0011L13.2973 18.0011C14.4413 18.0011 15.3834 17.059 15.3834 15.915L15.3834 13.0214L14.9124 13.4924C14.4413 13.9635 13.7684 14.3 13.0955 14.5018L11.6823 14.771C11.0767 14.9056 10.4037 14.7037 10.0673 14.2327C9.7308 13.8289 9.59621 13.3579 9.7308 12.8195L10.0673 11.339C10.2019 10.6661 10.5383 10.0605 11.0767 9.52213L14.4413 6.15745C14.7105 5.88828 15.1143 5.61911 15.4507 5.48452L15.4507 4.00406C15.4507 2.86008 14.5086 1.91797 13.3646 1.91797L4.34733 1.91797C3.20334 1.91797 2.26123 2.86008 2.26123 4.00406ZM5.55861 4.27324L12.0188 4.27324C12.4225 4.27324 12.6917 4.54241 12.6917 4.94617C12.6917 5.34993 12.4225 5.61911 12.0188 5.61911L5.55861 5.61911C5.15485 5.61911 4.88567 5.34993 4.88567 4.94617C4.88567 4.60971 5.22214 4.27324 5.55861 4.27324ZM5.55861 7.03227L9.32704 7.03227C9.7308 7.03227 9.99997 7.30144 9.99997 7.7052C9.99997 8.10896 9.7308 8.37814 9.32704 8.37814L5.55861 8.37814C5.15485 8.37814 4.88567 8.10896 4.88567 7.7052C4.88567 7.30144 5.22214 7.03227 5.55861 7.03227Z" fill="#48B3FF"/>
<path d="M17.3349 7.16548C16.7965 6.62713 15.8544 6.62713 15.3161 7.16548L11.9514 10.5302C11.6149 10.8666 11.4131 11.2031 11.3458 11.6741L11.0093 13.0873C10.942 13.2892 11.1439 13.4911 11.3458 13.4238L12.8262 13.0873C13.23 13.02 13.6337 12.7508 13.9702 12.4817L17.3349 9.11699C17.8732 8.57864 17.8732 7.70383 17.3349 7.16548Z" fill="#48B3FF"/>
</svg>
