<svg width="20" height="20" viewBox="0 0 20 20" fill="none" xmlns="http://www.w3.org/2000/svg">
<path d="M10.8333 18.3307H4.16667C2.50001 18.3307 1.66667 17.4974 1.66667 15.8307V9.16406C1.66667 7.4974 2.50001 6.66406 4.16667 6.66406H8.33334V15.8307C8.33334 17.4974 9.16667 18.3307 10.8333 18.3307Z" stroke="#666666" stroke-width="1.5" stroke-miterlimit="10" stroke-linecap="round" stroke-linejoin="round"/>
<path d="M8.42499 3.33594C8.35833 3.58594 8.33334 3.86094 8.33334 4.16927V6.66927H4.16667V5.0026C4.16667 4.08594 4.91667 3.33594 5.83334 3.33594H8.42499Z" stroke="#666666" stroke-width="1.5" stroke-miterlimit="10" stroke-linecap="round" stroke-linejoin="round"/>
<path d="M11.6667 6.66406V10.8307" stroke="#666666" stroke-width="1.5" stroke-miterlimit="10" stroke-linecap="round" stroke-linejoin="round"/>
<path d="M15 6.66406V10.8307" stroke="#666666" stroke-width="1.5" stroke-miterlimit="10" stroke-linecap="round" stroke-linejoin="round"/>
<path d="M14.1667 14.1641H12.5C12.0417 14.1641 11.6667 14.5391 11.6667 14.9974V18.3307H15V14.9974C15 14.5391 14.625 14.1641 14.1667 14.1641Z" stroke="#666666" stroke-width="1.5" stroke-miterlimit="10" stroke-linecap="round" stroke-linejoin="round"/>
<path d="M5 10.8359V14.1693" stroke="#666666" stroke-width="1.5" stroke-miterlimit="10" stroke-linecap="round" stroke-linejoin="round"/>
<path d="M8.33333 15.8307V4.16406C8.33333 2.4974 9.16666 1.66406 10.8333 1.66406H15.8333C17.5 1.66406 18.3333 2.4974 18.3333 4.16406V15.8307C18.3333 17.4974 17.5 18.3307 15.8333 18.3307H10.8333C9.16666 18.3307 8.33333 17.4974 8.33333 15.8307Z" stroke="#666666" stroke-width="1.5" stroke-miterlimit="10" stroke-linecap="round" stroke-linejoin="round"/>
</svg>
