<svg width="20" height="20" viewBox="0 0 20 20" fill="none" xmlns="http://www.w3.org/2000/svg">
<path d="M9.54992 11.4411C10.8432 11.4411 11.8916 10.3927 11.8916 9.09948C11.8916 7.80621 10.8432 6.75781 9.54992 6.75781C8.25665 6.75781 7.20825 7.80621 7.20825 9.09948C7.20825 10.3927 8.25665 11.4411 9.54992 11.4411Z" stroke="#1B1B1B" stroke-width="1.25" stroke-linecap="round" stroke-linejoin="round"/>
<path d="M13.875 16.8336C13.875 14.892 11.9416 13.3086 9.54997 13.3086C7.15831 13.3086 5.22498 14.8836 5.22498 16.8336" stroke="#1B1B1B" stroke-width="1.25" stroke-linecap="round" stroke-linejoin="round"/>
<path d="M17.5 10.4167C17.5 14.7917 13.9583 18.3333 9.58329 18.3333C5.20829 18.3333 1.66663 14.7917 1.66663 10.4167C1.66663 6.04167 5.20829 2.5 9.58329 2.5C10.675 2.5 11.7166 2.71666 12.6666 3.11666C12.5583 3.44999 12.5 3.8 12.5 4.16667C12.5 4.79167 12.675 5.38333 12.9833 5.88333C13.15 6.16666 13.3666 6.42498 13.6166 6.64164C14.2 7.17498 14.975 7.5 15.8333 7.5C16.2 7.5 16.55 7.44165 16.875 7.32498C17.275 8.27498 17.5 9.325 17.5 10.4167Z" stroke="#1B1B1B" stroke-width="1.25" stroke-linecap="round" stroke-linejoin="round"/>
<path d="M19.1667 4.16536C19.1667 4.43203 19.1333 4.69036 19.0667 4.94036C18.9917 5.27369 18.8583 5.5987 18.6833 5.88203C18.2833 6.55703 17.6417 7.08201 16.875 7.32368C16.55 7.44035 16.2 7.4987 15.8333 7.4987C14.975 7.4987 14.2 7.17367 13.6167 6.64034C13.3667 6.42367 13.15 6.16536 12.9833 5.88203C12.675 5.38203 12.5 4.79036 12.5 4.16536C12.5 3.7987 12.5583 3.44869 12.6667 3.11536C12.825 2.63202 13.0917 2.19872 13.4417 1.84038C14.05 1.21538 14.9 0.832031 15.8333 0.832031C16.8167 0.832031 17.7083 1.25705 18.3083 1.94038C18.8417 2.53205 19.1667 3.31536 19.1667 4.16536Z" stroke="#1B1B1B" stroke-width="1.25" stroke-miterlimit="10" stroke-linecap="round" stroke-linejoin="round"/>
<path d="M17.075 4.14844H14.5917" stroke="#1B1B1B" stroke-width="1.25" stroke-miterlimit="10" stroke-linecap="round" stroke-linejoin="round"/>
<path d="M15.8334 2.93359V5.42525" stroke="#1B1B1B" stroke-width="1.25" stroke-miterlimit="10" stroke-linecap="round" stroke-linejoin="round"/>
</svg>
