<svg width="20" height="20" viewBox="0 0 20 20" fill="none" xmlns="http://www.w3.org/2000/svg">
<path d="M18.9116 13.5689C14.6067 16.8215 14.4914 17.1974 13.4624 17.5035C12.2296 17.8674 11.0309 18.0226 10.5764 18.0226C9.87534 18.0226 9.18858 17.808 8.6142 17.4054C7.67151 16.7779 7.54307 16.571 7.116 16.4897C7.07073 16.3237 7.11795 16.4647 5.17834 12.4223L6.21256 11.7805C7.4369 11.0222 9.06795 11.3349 9.92233 12.4938C10.0715 12.6942 10.3066 12.8127 10.558 12.7984L13.1109 12.6901C13.7758 12.6699 14.2741 13.1478 14.3679 13.7059L16.4139 12.1729C17.1781 11.5942 18.2169 11.6446 18.9239 12.2118C19.3535 12.5572 19.3597 13.2209 18.9116 13.5689Z" fill="#1DAF61"/>
<path d="M6.16922 17.4685L3.63645 18.6729C3.29684 18.8364 2.88898 18.6936 2.72551 18.354L0.820859 14.3971C0.657383 14.0575 0.800195 13.6496 1.1398 13.4861L3.67258 12.2817C4.01219 12.1182 4.42004 12.261 4.58352 12.6006L6.48813 16.5575C6.6516 16.8972 6.50883 17.305 6.16922 17.4685Z" fill="#1DAF61"/>
<path d="M12.6612 9.53208C13.1415 9.75896 14.7624 10.5786 15.9663 11.7416L14.5968 12.7676C13.9727 11.9875 13.1201 12.0849 13.0843 12.0768L10.5171 12.1872C10.4803 12.1872 10.4415 12.1647 10.4149 12.1299C10.1431 11.762 9.7997 11.4554 9.41134 11.2306C10.4272 10.4049 11.5554 9.81415 12.0378 9.57911C12.1285 8.85326 12.1071 8.10494 11.9029 7.39005C8.06138 7.46794 6.16939 5.45052 6.1615 1.80193C6.1615 1.50349 6.39654 1.26439 6.69498 1.26029C10.4013 1.21204 12.3588 3.13228 12.3669 6.84638C12.5433 4.43872 13.8885 3.14435 16.561 3.13661C16.7859 3.13458 16.9678 3.31443 16.9698 3.53724C17.0011 6.25259 15.6461 7.80283 12.7634 7.81111C12.7246 7.8949 12.6898 7.98279 12.6592 8.07068C12.7144 8.51216 12.7185 8.99861 12.6612 9.53208Z" fill="#1DAF61"/>
</svg>
