<svg width="20" height="20" viewBox="0 0 20 20" fill="none" xmlns="http://www.w3.org/2000/svg">
<path d="M12.9834 9.99896C12.9834 11.649 11.6501 12.9823 10.0001 12.9823C8.35006 12.9823 7.01672 11.649 7.01672 9.99896C7.01672 8.34896 8.35006 7.01562 10.0001 7.01562C11.6501 7.01562 12.9834 8.34896 12.9834 9.99896Z" stroke="#1B1B1B" stroke-width="1.5" stroke-linecap="round" stroke-linejoin="round"/>
<path d="M9.99999 16.8932C12.9417 16.8932 15.6833 15.1599 17.5917 12.1599C18.3417 10.9849 18.3417 9.0099 17.5917 7.8349C15.6833 4.8349 12.9417 3.10156 9.99999 3.10156C7.05832 3.10156 4.31666 4.8349 2.40833 7.8349C1.65833 9.0099 1.65833 10.9849 2.40833 12.1599C4.31666 15.1599 7.05832 16.8932 9.99999 16.8932Z" stroke="#1B1B1B" stroke-width="1.5" stroke-linecap="round" stroke-linejoin="round"/>
</svg>
