<svg width="20" height="20" viewBox="0 0 20 20" fill="none" xmlns="http://www.w3.org/2000/svg">
<path d="M9.99979 18.5703C9.92836 18.5703 9.92836 18.5703 9.85693 18.5703C9.78551 18.5703 2.85693 16.9275 2.85693 9.2846V4.99888C2.85693 4.71317 2.99979 4.42746 3.2855 4.35603L9.71408 1.49888C9.92836 1.42746 10.1426 1.42746 10.2855 1.49888L16.7141 4.35603C16.9998 4.42746 17.1426 4.71317 17.1426 4.99888V9.2846C17.1426 16.9275 10.2141 18.5703 10.1426 18.5703C10.0712 18.5703 10.0712 18.5703 9.99979 18.5703ZM9.99979 10.7132C7.92836 10.7132 6.42836 11.6417 6.42836 12.856C6.42836 14.0703 7.92836 14.9989 9.99979 14.9989C12.0712 14.9989 13.5712 14.0703 13.5712 12.856C13.5712 11.6417 12.0712 10.7132 9.99979 10.7132ZM9.99979 4.99888C8.78551 4.99888 7.85693 5.92746 7.85693 7.14174C7.85693 8.35603 8.78551 9.2846 9.99979 9.2846C11.2141 9.2846 12.1426 8.35603 12.1426 7.14174C12.1426 5.92746 11.2141 4.99888 9.99979 4.99888Z" fill="#1DAF61"/>
</svg>
