<svg width="20" height="20" viewBox="0 0 20 20" fill="none" xmlns="http://www.w3.org/2000/svg">
<path d="M17.7087 7.62604C15.7837 4.60104 12.967 2.85938 10.0003 2.85938C8.51699 2.85938 7.07533 3.29271 5.75866 4.10104C4.44199 4.91771 3.25866 6.10937 2.29199 7.62604C1.45866 8.93437 1.45866 11.0594 2.29199 12.3677C4.21699 15.401 7.03366 17.1344 10.0003 17.1344C11.4837 17.1344 12.9253 16.701 14.242 15.8927C15.5587 15.076 16.742 13.8844 17.7087 12.3677C18.542 11.0677 18.542 8.93437 17.7087 7.62604ZM10.0003 13.3677C8.13366 13.3677 6.63366 11.8594 6.63366 10.001C6.63366 8.14271 8.13366 6.63437 10.0003 6.63437C11.867 6.63437 13.367 8.14271 13.367 10.001C13.367 11.8594 11.867 13.3677 10.0003 13.3677Z" fill="#FF9A68"/>
<path d="M10 7.61719C8.69167 7.61719 7.625 8.68385 7.625 10.0005C7.625 11.3089 8.69167 12.3755 10 12.3755C11.3083 12.3755 12.3833 11.3089 12.3833 10.0005C12.3833 8.69219 11.3083 7.61719 10 7.61719Z" fill="#FF9A68"/>
</svg>
