<svg width="32" height="32" viewBox="0 0 32 32" fill="none" xmlns="http://www.w3.org/2000/svg">
<path d="M6 17C3.79443 17 2 15.2061 2 13C2 10.7939 3.79443 9 6 9C8.20557 9 10 10.7939 10 13C10 15.2061 8.20557 17 6 17ZM7.77002 17.6699C6.62988 18.1104 5.37012 18.1104 4.22998 17.6699C3.93994 17.5596 3.60986 17.5996 3.3501 17.7598C1.87988 18.6904 1 20.2695 1 22V26C1 26.5498 1.4502 27 2 27H7V22C7 20.4502 7.41016 18.9404 8.1499 17.6201C8.02002 17.5996 7.89014 17.6201 7.77002 17.6699ZM26 17C28.2056 17 30 15.2061 30 13C30 10.7939 28.2056 9 26 9C23.7944 9 22 10.7939 22 13C22 15.2061 23.7944 17 26 17ZM28.6499 17.7598C28.3901 17.5996 28.0601 17.5596 27.77 17.6699C26.6299 18.1104 25.3701 18.1104 24.23 17.6699C24.1099 17.6201 23.98 17.5996 23.8501 17.6201C24.5898 18.9404 25 20.4502 25 22V27H30C30.5498 27 31 26.5498 31 26V22C31 20.2695 30.1201 18.6904 28.6499 17.7598ZM16 15C13.2432 15 11 12.7568 11 10C11 7.24316 13.2432 5 16 5C18.7568 5 21 7.24316 21 10C21 12.7568 18.7568 15 16 15ZM23 22C23 19.7695 21.9302 17.6699 20.1299 16.3604C19.8301 16.1396 19.4302 16.1104 19.1001 16.2695C18.4302 16.6104 17.7202 16.8203 17 16.9199V22C17 22.5498 16.5498 23 16 23C15.4502 23 15 22.5498 15 22V16.9199C14.2798 16.8203 13.5698 16.6104 12.8999 16.2695C12.5698 16.1104 12.1699 16.1396 11.8701 16.3604C10.0698 17.6699 9 19.7695 9 22V27H23V22Z" fill="#FF9A68"/>
</svg>
