<svg width="17" height="12" viewBox="0 0 17 12" fill="none" xmlns="http://www.w3.org/2000/svg">
<path d="M16.2644 4.59184L14.7269 11.3856C14.6964 11.5277 14.6173 11.6548 14.5032 11.7449C14.3891 11.835 14.2472 11.8826 14.1019 11.8793H2.12685C1.98151 11.8826 1.83959 11.835 1.72551 11.7449C1.61144 11.6548 1.53234 11.5277 1.50185 11.3856L0.0143516 4.59184C-0.010682 4.47705 -0.00285133 4.35752 0.0369454 4.24698C0.0767422 4.13643 0.146893 4.03934 0.239351 3.96684C0.332064 3.89409 0.443458 3.84903 0.56068 3.83686C0.677902 3.8247 0.796175 3.84593 0.901851 3.89809L4.55185 5.66684L7.57685 0.316843C7.63136 0.220657 7.71041 0.140652 7.80594 0.0849894C7.90146 0.0293272 8.01004 0 8.1206 0C8.23116 0 8.33974 0.0293272 8.43527 0.0849894C8.53079 0.140652 8.60984 0.220657 8.66435 0.316843L11.6894 5.67309L15.3643 3.89184C15.4708 3.83542 15.5913 3.81096 15.7113 3.82141C15.8313 3.83185 15.9457 3.87675 16.0408 3.95071C16.1359 4.02467 16.2076 4.12452 16.2472 4.23827C16.2869 4.35201 16.2928 4.4748 16.2644 4.59184Z" fill="#7D52F4"/>
</svg>
