<svg width="20" height="20" viewBox="0 0 20 20" fill="none" xmlns="http://www.w3.org/2000/svg">
<path d="M17.3846 7H2.61538C2.27897 7 2 6.54667 2 6C2 5.45333 2.27897 5 2.61538 5H17.3846C17.721 5 18 5.45333 18 6C18 6.54667 17.721 7 17.3846 7Z" fill="#666666"/>
<path d="M15.3333 11H4.66667C4.30222 11 4 10.5467 4 10C4 9.45333 4.30222 9 4.66667 9H15.3333C15.6978 9 16 9.45333 16 10C16 10.5467 15.6978 11 15.3333 11Z" fill="#666666"/>
<path d="M11.4545 16H8.54545C8.24727 16 8 15.5467 8 15C8 14.4533 8.24727 14 8.54545 14H11.4545C11.7527 14 12 14.4533 12 15C12 15.5467 11.7527 16 11.4545 16Z" fill="#666666"/>
</svg>
