<svg width="20" height="20" viewBox="0 0 20 20" fill="none" xmlns="http://www.w3.org/2000/svg">
<path d="M7.63338 9.05964C7.55005 9.0513 7.45005 9.0513 7.35838 9.05964C5.37505 8.99297 3.80005 7.36797 3.80005 5.36797C3.80005 3.3263 5.45005 1.66797 7.50005 1.66797C9.54172 1.66797 11.2 3.3263 11.2 5.36797C11.1917 7.36797 9.61672 8.99297 7.63338 9.05964Z" stroke="#666666" stroke-width="1.5" stroke-linecap="round" stroke-linejoin="round"/>
<path d="M13.675 3.33203C15.2916 3.33203 16.5916 4.64036 16.5916 6.2487C16.5916 7.8237 15.3417 9.10703 13.7833 9.16536C13.7167 9.15703 13.6417 9.15703 13.5667 9.16536" stroke="#666666" stroke-width="1.5" stroke-linecap="round" stroke-linejoin="round"/>
<path d="M3.4666 12.132C1.44993 13.482 1.44993 15.682 3.4666 17.0237C5.75827 18.557 9.5166 18.557 11.8083 17.0237C13.8249 15.6737 13.8249 13.4737 11.8083 12.132C9.52494 10.607 5.7666 10.607 3.4666 12.132Z" stroke="#666666" stroke-width="1.5" stroke-linecap="round" stroke-linejoin="round"/>
<path d="M15.2834 16.668C15.8834 16.543 16.4501 16.3013 16.9168 15.943C18.2168 14.968 18.2168 13.3596 16.9168 12.3846C16.4584 12.0346 15.9001 11.8013 15.3084 11.668" stroke="#666666" stroke-width="1.5" stroke-linecap="round" stroke-linejoin="round"/>
</svg>
