<svg width="16" height="16" viewBox="0 0 16 16" fill="none" xmlns="http://www.w3.org/2000/svg">
<path d="M8 7.9987C9.84095 7.9987 11.3333 6.50631 11.3333 4.66536C11.3333 2.82442 9.84095 1.33203 8 1.33203C6.15905 1.33203 4.66667 2.82442 4.66667 4.66536C4.66667 6.50631 6.15905 7.9987 8 7.9987Z" stroke="#AEAEAE" stroke-width="1.2" stroke-linecap="round" stroke-linejoin="round"/>
<path d="M12.8067 10.4914L10.4466 12.8514C10.3533 12.9448 10.2666 13.1181 10.2466 13.2447L10.12 14.1447C10.0733 14.4714 10.3 14.6981 10.6267 14.6514L11.5266 14.5247C11.6533 14.5047 11.8333 14.4181 11.92 14.3247L14.28 11.9647C14.6866 11.5581 14.88 11.0847 14.28 10.4847C13.6866 9.89139 13.2133 10.0847 12.8067 10.4914Z" stroke="#AEAEAE" stroke-width="1.2" stroke-miterlimit="10" stroke-linecap="round" stroke-linejoin="round"/>
<path d="M12.4667 10.832C12.6667 11.552 13.2267 12.112 13.9467 12.312" stroke="#AEAEAE" stroke-width="1.2" stroke-miterlimit="10" stroke-linecap="round" stroke-linejoin="round"/>
<path d="M2.27332 14.6667C2.27332 12.0867 4.84 10 8 10C8.69333 10 9.35998 10.1 9.97998 10.2867" stroke="#AEAEAE" stroke-width="1.2" stroke-linecap="round" stroke-linejoin="round"/>
</svg>
