<svg width="20" height="20" viewBox="0 0 20 20" fill="none" xmlns="http://www.w3.org/2000/svg">
<path d="M17.5667 7.14742V12.8474C17.5667 13.7807 17.0667 14.6474 16.2583 15.1224L11.3083 17.9808C10.5 18.4474 9.5 18.4474 8.68334 17.9808L3.73334 15.1224C2.925 14.6558 2.425 13.7891 2.425 12.8474V7.14742C2.425 6.21409 2.925 5.34739 3.73334 4.87239L8.68334 2.01406C9.49167 1.5474 10.4917 1.5474 11.3083 2.01406L16.2583 4.87239C17.0667 5.34739 17.5667 6.20576 17.5667 7.14742Z" stroke="#666666" stroke-width="1.5" stroke-linecap="round" stroke-linejoin="round"/>
<path d="M10 9.16456C11.0724 9.16456 11.9417 8.29523 11.9417 7.22288C11.9417 6.15053 11.0724 5.28125 10 5.28125C8.92765 5.28125 8.05833 6.15053 8.05833 7.22288C8.05833 8.29523 8.92765 9.16456 10 9.16456Z" stroke="#666666" stroke-width="1.5" stroke-linecap="round" stroke-linejoin="round"/>
<path d="M13.3333 13.8807C13.3333 12.3807 11.8417 11.1641 10 11.1641C8.15834 11.1641 6.66667 12.3807 6.66667 13.8807" stroke="#666666" stroke-width="1.5" stroke-linecap="round" stroke-linejoin="round"/>
</svg>
