<svg width="117" height="40" viewBox="0 0 117 40" fill="none" xmlns="http://www.w3.org/2000/svg">
<g clip-path="url(#clip0_2295_227648)">
<path d="M78.4409 35.9051C76.541 35.9051 74.8567 35.6078 73.3881 35.0134C71.9194 34.4073 70.7713 33.4865 69.9437 32.2509C69.1278 31.0037 68.7315 29.4244 68.7548 27.5128H73.5105C73.5338 28.422 73.7319 29.1912 74.1049 29.8207C74.4896 30.4384 75.0549 30.9047 75.8008 31.2194C76.5585 31.5341 77.4968 31.6914 78.6157 31.6914C79.6065 31.6914 80.4166 31.5865 81.046 31.3767C81.6754 31.1553 82.1417 30.8347 82.4447 30.4151C82.7478 29.9955 82.8993 29.4943 82.8993 28.9115C82.8993 28.2704 82.707 27.7343 82.3223 27.303C81.9377 26.8601 81.3316 26.4521 80.504 26.0791C79.6764 25.6945 78.5983 25.2749 77.2695 24.8203C75.7542 24.2841 74.4254 23.6663 73.2832 22.967C72.1525 22.256 71.2783 21.3993 70.6606 20.3969C70.0428 19.3828 69.7339 18.1706 69.7339 16.7602C69.7339 14.464 70.5032 12.7214 72.0418 11.5325C73.592 10.332 75.7018 9.73169 78.371 9.73169C80.201 9.73169 81.7104 10.0173 82.8993 10.5884C84.0882 11.1595 84.9915 12.0046 85.6093 13.1236C86.2387 14.2425 86.6292 15.6238 86.7807 17.2672H82.0776C82.0193 16.5446 81.8386 15.9385 81.5356 15.4489C81.2442 14.9477 80.8304 14.5747 80.2942 14.3299C79.7697 14.0735 79.1111 13.9453 78.3185 13.9453C77.1063 13.9453 76.1738 14.1668 75.5211 14.6097C74.8684 15.0526 74.542 15.7287 74.542 16.6378C74.542 17.2323 74.6702 17.7568 74.9267 18.2114C75.1831 18.6543 75.6551 19.0856 76.3428 19.5052C77.0422 19.9131 78.0504 20.3677 79.3676 20.8689C80.4749 21.3002 81.5356 21.714 82.5496 22.1103C83.5637 22.5066 84.4612 22.9728 85.2421 23.509C86.0347 24.0335 86.6525 24.6921 87.0954 25.4847C87.55 26.2656 87.7831 27.268 87.7948 28.4919C87.8064 30.928 86.9905 32.7754 85.347 34.0343C83.7036 35.2815 81.4015 35.9051 78.4409 35.9051Z" fill="white"/>
<path d="M44.1105 35.9051L52.3369 9.73169H59.6093L67.8357 35.9051H62.4894L60.1133 27.7146L57.5032 18.8222L56.0631 13.2239H55.8291L54.407 18.8222L49.4387 35.9051H44.1105Z" fill="white"/>
<path d="M96.0372 14.7434H96.0099V30.8557H96.0372V35.9055H90.9972V9.73169H96.0372V14.7434ZM110.582 35.9055H105.542V24.7268H98.131V20.2258H105.542V9.73169H110.582V35.9055Z" fill="white"/>
<path d="M31.4804 25.0823C32.8363 28.1895 36.161 28.9069 37.5017 28.8726C37.6887 28.8678 37.8611 29.0125 37.8611 29.1996V36.0429C37.8611 36.1937 37.7479 36.3209 37.5975 36.3309C34.896 36.5099 29.555 35.2401 27.7153 32.5031C25.3656 29.0075 23.2071 27.792 21.9199 27.5557C21.769 27.5281 21.6518 27.4013 21.6518 27.2479V19.784C21.6518 19.6399 21.7551 19.516 21.8982 19.4991C24.7659 19.1602 29.7146 21.0356 31.4804 25.0823Z" fill="white"/>
<path d="M21.3877 3.49871C21.5335 3.49635 21.6518 3.61476 21.6518 3.76052V9.41792C21.6518 9.56368 21.5336 9.68147 21.3878 9.68531C18.825 9.75274 16.3813 10.8003 14.5637 12.6178C12.6838 14.4977 11.6277 17.0474 11.6277 19.7059C11.6277 22.3644 12.6838 24.9141 14.5637 26.794C16.3813 28.6115 18.825 29.659 21.3878 29.7265C21.5336 29.7303 21.6518 29.8481 21.6518 29.9939V35.6513C21.6518 35.797 21.5335 35.9154 21.3877 35.9131C17.1843 35.8447 13.1676 34.1451 10.19 31.1676C7.15022 28.1278 5.44245 24.0049 5.44245 19.7059C5.44245 15.4069 7.1502 11.284 10.19 8.24417C13.1676 5.26663 17.1843 3.56711 21.3877 3.49871ZM36.1907 15.6337C36.1907 15.797 36.0583 15.9293 35.895 15.9293H30.2699C30.1066 15.9293 29.9743 15.797 29.9743 15.6337V9.71296H35.895C36.0583 9.71296 36.1907 9.84534 36.1907 10.0086V15.6337ZM29.9743 9.71296H24.0536C23.8903 9.71296 23.7579 9.58059 23.7579 9.4173V3.79224C23.7579 3.62895 23.8903 3.49658 24.0536 3.49658H29.6786C29.8419 3.49658 29.9743 3.62895 29.9743 3.79224V9.71296Z" fill="white"/>
</g>
<defs>
<clipPath id="clip0_2295_227648">
<rect width="116.795" height="40" fill="white"/>
</clipPath>
</defs>
</svg>
