<svg width="24" height="24" viewBox="0 0 24 24" fill="none" xmlns="http://www.w3.org/2000/svg">
<g clip-path="url(#clip0_ar)">
<path d="M12 24C18.6274 24 24 18.6274 24 12C24 5.37258 18.6274 0 12 0C5.37258 0 0 5.37258 0 12C0 18.6274 5.37258 24 12 24Z" fill="#F0F0F0"/>
<path d="M12 0C7.24008 0 3.11857 2.76917 1.19043 6.78261H22.8096C20.8814 2.76917 16.7599 0 12 0Z" fill="#338AF3"/>
<path d="M12 24C16.7599 24 20.8814 21.2308 22.8096 17.2174H1.19043C3.11857 21.2308 7.24008 24 12 24Z" fill="#338AF3"/>
<path d="M12 8.34781L12.5765 10.1215H14.4437L12.9336 11.2181L13.5101 12.9918L12 11.8951L10.4899 12.9918L11.0664 11.2181L9.55627 10.1215H11.4235L12 8.34781Z" fill="#FFDA44"/>
</g>
<defs>
<clipPath id="clip0_ar">
<rect width="24" height="24" fill="white"/>
</clipPath>
</defs>
</svg>
