<svg width="24" height="24" viewBox="0 0 24 24" fill="none" xmlns="http://www.w3.org/2000/svg">
<g clip-path="url(#clip0_cl)">
<path d="M12 24C18.6274 24 24 18.6274 24 12C24 5.37258 18.6274 0 12 0C5.37258 0 0 5.37258 0 12C0 18.6274 5.37258 24 12 24Z" fill="#F0F0F0"/>
<path d="M24 12C24 18.6274 18.6274 24 12 24C5.37258 24 0 18.6274 0 12" fill="#D80027"/>
<path d="M10.4348 12H24C24 10.6309 23.736 9.26044 23.2536 8H10.4348V12Z" fill="#F0F0F0"/>
<path d="M0 12C0 5.37262 5.37262 0 12 0C18.6274 0 24 5.37262 24 12" fill="#0052B4"/>
<path d="M0 12V0H10.4348V12H0Z" fill="#0052B4"/>
<path d="M5.21739 3.65217L6.02691 5.99565H8.5L6.45391 7.48043L7.26348 9.82391L5.21739 8.33913L3.1713 9.82391L3.98087 7.48043L1.93478 5.99565H4.40783L5.21739 3.65217Z" fill="#F0F0F0"/>
</g>
<defs>
<clipPath id="clip0_cl">
<rect width="24" height="24" fill="white"/>
</clipPath>
</defs>
</svg>
