<svg width="24" height="24" viewBox="0 0 24 24" fill="none" xmlns="http://www.w3.org/2000/svg">
<g clip-path="url(#clip0_co)">
<path d="M12 24C18.6274 24 24 18.6274 24 12C24 5.37258 18.6274 0 12 0C5.37258 0 0 5.37258 0 12C0 18.6274 5.37258 24 12 24Z" fill="#FFDA44"/>
<path d="M0 12C0 15.4774 1.68392 18.5717 4.28184 20.5217H19.7182C22.3161 18.5717 24 15.4774 24 12H0Z" fill="#0052B4"/>
<path d="M19.7182 20.5217H4.28184C6.43894 22.1484 9.10484 23.1304 12 23.1304C14.8952 23.1304 17.5611 22.1484 19.7182 20.5217Z" fill="#D80027"/>
</g>
<defs>
<clipPath id="clip0_co">
<rect width="24" height="24" fill="white"/>
</clipPath>
</defs>
</svg>
