<svg width="24" height="24" viewBox="0 0 24 24" fill="none" xmlns="http://www.w3.org/2000/svg">
<g clip-path="url(#clip0_ke)">
<path d="M12 24C18.6274 24 24 18.6274 24 12C24 5.37258 18.6274 0 12 0C5.37258 0 0 5.37258 0 12C0 18.6274 5.37258 24 12 24Z" fill="#F0F0F0"/>
<path d="M12 0C7.24008 0 3.11857 2.76917 1.19043 6.78261H22.8096C20.8814 2.76917 16.7599 0 12 0Z" fill="#000000"/>
<path d="M12 24C16.7599 24 20.8814 21.2308 22.8096 17.2174H1.19043C3.11857 21.2308 7.24008 24 12 24Z" fill="#496E2D"/>
<path d="M23.2536 8H0.746391C0.264047 9.26044 0 10.6309 0 12C0 13.3691 0.264047 14.7396 0.746391 16H23.2536C23.736 14.7396 24 13.3691 24 12C24 10.6309 23.736 9.26044 23.2536 8Z" fill="#D80027"/>
<path d="M12 6.26086V17.7391" stroke="#F0F0F0" stroke-width="2"/>
<path d="M12 7.82609L14.087 12L12 16.1739L9.91309 12L12 7.82609Z" fill="#D80027"/>
</g>
<defs>
<clipPath id="clip0_ke">
<rect width="24" height="24" fill="white"/>
</clipPath>
</defs>
</svg>
