<svg width="24" height="24" viewBox="0 0 24 24" fill="none" xmlns="http://www.w3.org/2000/svg">
<g clip-path="url(#clip0_2387_81322)">
<path d="M12 24C18.6274 24 24 18.6274 24 12C24 5.37258 18.6274 0 12 0C5.37258 0 0 5.37258 0 12C0 18.6274 5.37258 24 12 24Z" fill="#F0F0F0"/>
<path d="M0 12C0 5.37263 5.37262 0 12 0C18.6274 0 24 5.37263 24 12" fill="#D80027"/>
<path d="M7.30451 6.26081C7.30451 4.51247 8.53324 3.05194 10.1741 2.69358C9.92187 2.63855 9.66026 2.60869 9.39143 2.60869C7.37435 2.60869 5.73926 4.24378 5.73926 6.26086C5.73926 8.27794 7.37435 9.91303 9.39143 9.91303C9.66016 9.91303 9.92182 9.88317 10.1741 9.82809C8.53324 9.46974 7.30451 8.0092 7.30451 6.26081Z" fill="#F0F0F0"/>
<path d="M12 2.86955L12.259 3.66666H13.0972L12.4191 4.15936L12.6781 4.95647L12 4.46386L11.3219 4.95647L11.5809 4.15936L10.9028 3.66666H11.741L12 2.86955Z" fill="#F0F0F0"/>
<path d="M9.96688 4.43475L10.2259 5.23191H11.064L10.3859 5.72456L10.645 6.52167L9.96688 6.02906L9.28869 6.52167L9.54777 5.72456L8.86963 5.23191H9.7078L9.96688 4.43475Z" fill="#F0F0F0"/>
<path d="M14.0332 4.43475L14.2923 5.23191H15.1304L14.4523 5.72456L14.7113 6.52167L14.0332 6.02906L13.3551 6.52167L13.6141 5.72456L12.936 5.23191H13.7742L14.0332 4.43475Z" fill="#F0F0F0"/>
<path d="M13.251 6.78258L13.51 7.57974H14.3481L13.67 8.07239L13.9291 8.8695L13.251 8.37689L12.5729 8.8695L12.8319 8.07239L12.1538 7.57974H12.9919L13.251 6.78258Z" fill="#F0F0F0"/>
<path d="M10.7495 6.78258L11.0085 7.57974H11.8468L11.1686 8.07239L11.4277 8.8695L10.7495 8.37689L10.0714 8.8695L10.3304 8.07239L9.65234 7.57974H10.4905L10.7495 6.78258Z" fill="#F0F0F0"/>
</g>
<defs>
<clipPath id="clip0_2387_81322">
<rect width="24" height="24" fill="white"/>
</clipPath>
</defs>
</svg>
