<svg width="24" height="24" viewBox="0 0 24 24" fill="none" xmlns="http://www.w3.org/2000/svg">
<g clip-path="url(#clip0_th)">
<path d="M12 24C18.6274 24 24 18.6274 24 12C24 5.37258 18.6274 0 12 0C5.37258 0 0 5.37258 0 12C0 18.6274 5.37258 24 12 24Z" fill="#F0F0F0"/>
<path d="M23.2536 8H0.746391C0.264047 9.26044 0 10.6309 0 12C0 13.3691 0.264047 14.7396 0.746391 16H23.2536C23.736 14.7396 24 13.3691 24 12C24 10.6309 23.736 9.26044 23.2536 8Z" fill="#0052B4"/>
<path d="M12 0C8.69073 0 5.70483 1.31823 3.51514 3.47826H20.4849C18.2952 1.31823 15.3093 0 12 0Z" fill="#D80027"/>
<path d="M20.4849 20.5217H3.51514C5.70483 22.6818 8.69073 24 12 24C15.3093 24 18.2952 22.6818 20.4849 20.5217Z" fill="#D80027"/>
</g>
<defs>
<clipPath id="clip0_th">
<rect width="24" height="24" fill="white"/>
</clipPath>
</defs>
</svg>
