<svg width="24" height="24" viewBox="0 0 24 24" fill="none" xmlns="http://www.w3.org/2000/svg">
<g clip-path="url(#clip0_br)">
<path d="M12 24C18.6274 24 24 18.6274 24 12C24 5.37258 18.6274 0 12 0C5.37258 0 0 5.37258 0 12C0 18.6274 5.37258 24 12 24Z" fill="#6DA544"/>
<path d="M12 4.69565L21.913 12L12 19.3043L2.08691 12L12 4.69565Z" fill="#FFDA44"/>
<path d="M12 16.1739C14.3051 16.1739 16.1739 14.3051 16.1739 12C16.1739 9.69488 14.3051 7.82609 12 7.82609C9.69488 7.82609 7.82609 9.69488 7.82609 12C7.82609 14.3051 9.69488 16.1739 12 16.1739Z" fill="#F0F0F0"/>
<path d="M9.91304 11.4783C8.97352 11.4783 8.06626 11.6132 7.20996 11.8632C7.24313 14.1205 9.09209 15.9565 11.3551 15.9565C12.9106 15.9565 14.2652 15.0727 14.8696 13.791C13.5495 12.3759 11.7439 11.4783 9.91304 11.4783Z" fill="#0052B4"/>
<path d="M16.0984 12.4943C16.1349 12.3337 16.1739 12.1695 16.1739 12C16.1739 9.69483 14.3051 7.82609 12 7.82609C10.3143 7.82609 8.86148 8.83326 8.22168 10.2718C8.76287 10.1768 9.32013 10.1304 9.89135 10.1304C12.229 10.1304 14.4008 11.0203 16.0984 12.4943Z" fill="#0052B4"/>
</g>
<defs>
<clipPath id="clip0_br">
<rect width="24" height="24" fill="white"/>
</clipPath>
</defs>
</svg>
