<svg width="24" height="24" viewBox="0 0 24 24" fill="none" xmlns="http://www.w3.org/2000/svg">
<g clip-path="url(#clip0_mx)">
<path d="M12 24C18.6274 24 24 18.6274 24 12C24 5.37258 18.6274 0 12 0C5.37258 0 0 5.37258 0 12C0 18.6274 5.37258 24 12 24Z" fill="#F0F0F0"/>
<path d="M24 12C24 6.84003 20.7435 2.44254 16.1739 0.746582V23.2534C20.7435 21.5575 24 17.16 24 12Z" fill="#D80027"/>
<path d="M0 12C0 17.16 3.25655 21.5575 7.82609 23.2534V0.746582C3.25655 2.44254 0 6.84003 0 12Z" fill="#6DA544"/>
<path d="M10 10C10 11.1046 10.8954 12 12 12C13.1046 12 14 11.1046 14 10V9H10V10Z" fill="#6DA544"/>
<path d="M14.5 8.5C14.5 7.67157 13.8284 7 13 7H11C10.1716 7 9.5 7.67157 9.5 8.5V9H14.5V8.5Z" fill="#FF9811"/>
</g>
<defs>
<clipPath id="clip0_mx">
<rect width="24" height="24" fill="white"/>
</clipPath>
</defs>
</svg>
