<svg width="24" height="24" viewBox="0 0 24 24" fill="none" xmlns="http://www.w3.org/2000/svg">
<g clip-path="url(#clip0_ph)">
<path d="M12 24C18.6274 24 24 18.6274 24 12C24 5.37258 18.6274 0 12 0C5.37258 0 0 5.37258 0 12C0 18.6274 5.37258 24 12 24Z" fill="#F0F0F0"/>
<path d="M24 12C24 5.37258 18.6274 0 12 0C9.17591 0 6.58012 0.976078 4.53027 2.60869H19.4699C21.5197 0.976078 24 5.37258 24 12Z" fill="#0052B4"/>
<path d="M12 24C18.6274 24 24 18.6274 24 12H0C0 18.6274 5.37258 24 12 24Z" fill="#D80027"/>
<path d="M4.53027 2.60869C1.76907 4.80656 0 8.19015 0 12H12L4.53027 2.60869Z" fill="#FFDA44"/>
<path d="M5.2 7.5L5.6 8.7H6.9L5.85 9.4L6.25 10.6L5.2 9.9L4.15 10.6L4.55 9.4L3.5 8.7H4.8L5.2 7.5Z" fill="#FFDA44"/>
<path d="M2.5 10.5L2.8 11.3H3.7L2.95 11.8L3.2 12.6L2.5 12.1L1.8 12.6L2.05 11.8L1.3 11.3H2.2L2.5 10.5Z" fill="#FFDA44"/>
<path d="M2.5 4.5L2.8 5.3H3.7L2.95 5.8L3.2 6.6L2.5 6.1L1.8 6.6L2.05 5.8L1.3 5.3H2.2L2.5 4.5Z" fill="#FFDA44"/>
</g>
<defs>
<clipPath id="clip0_ph">
<rect width="24" height="24" fill="white"/>
</clipPath>
</defs>
</svg>
