<svg width="24" height="24" viewBox="0 0 24 24" fill="none" xmlns="http://www.w3.org/2000/svg">
<g clip-path="url(#clip0_2387_81304)">
<path d="M12 24.0002C18.6274 24.0002 24 18.6276 24 12.0002C24 5.3728 18.6274 0.000213623 12 0.000213623C5.37258 0.000213623 0 5.3728 0 12.0002C0 18.6276 5.37258 24.0002 12 24.0002Z" fill="#F0F0F0"/>
<path d="M2.48032 4.69437C1.53771 5.92076 0.826945 7.33427 0.413086 8.86985H6.6558L2.48032 4.69437Z" fill="#0052B4"/>
<path d="M23.5869 8.87C23.173 7.33447 22.4622 5.92096 21.5196 4.69456L17.3442 8.87H23.5869Z" fill="#0052B4"/>
<path d="M0.413086 15.1307C0.826992 16.6662 1.53776 18.0797 2.48032 19.3061L6.65566 15.1307H0.413086Z" fill="#0052B4"/>
<path d="M19.3058 2.48089C18.0794 1.53828 16.6659 0.827511 15.1304 0.413605V6.65628L19.3058 2.48089Z" fill="#0052B4"/>
<path d="M4.69385 21.5195C5.92024 22.4621 7.33375 23.1728 8.86929 23.5868V17.3441L4.69385 21.5195Z" fill="#0052B4"/>
<path d="M8.86924 0.413605C7.33371 0.827511 5.92019 1.53828 4.69385 2.48084L8.86924 6.65623V0.413605Z" fill="#0052B4"/>
<path d="M15.1304 23.5868C16.6659 23.1728 18.0794 22.4621 19.3058 21.5195L15.1304 17.3441V23.5868Z" fill="#0052B4"/>
<path d="M17.3442 15.1307L21.5196 19.3061C22.4622 18.0798 23.173 16.6662 23.5869 15.1307H17.3442Z" fill="#0052B4"/>
<path d="M23.8994 10.4347H13.5663H13.5662V0.101456C13.0538 0.0347529 12.5315 -0.00012207 12.001 -0.00012207C11.4704 -0.00012207 10.9481 0.0347529 10.4358 0.101456V10.4346V10.4346H0.102555C0.0358516 10.947 0.000976562 11.4694 0.000976562 11.9999C0.000976562 12.5305 0.0358516 13.0527 0.102555 13.5651H10.4357H10.4357V23.8983C10.9481 23.965 11.4704 23.9999 12.001 23.9999C12.5315 23.9999 13.0538 23.965 13.5662 23.8983V13.5652V13.5651H23.8994C23.9661 13.0527 24.001 12.5305 24.001 11.9999C24.001 11.4694 23.9661 10.947 23.8994 10.4347Z" fill="#D80027"/>
<path d="M15.1318 15.1303L20.4866 20.4851C20.7329 20.2389 20.9679 19.9815 21.192 19.7147L16.6076 15.1303H15.1318V15.1303Z" fill="#D80027"/>
<path d="M8.87048 15.1303H8.87039L3.51562 20.485C3.76181 20.7313 4.0192 20.9662 4.28602 21.1904L8.87048 16.6058V15.1303Z" fill="#D80027"/>
<path d="M8.87025 8.86959V8.86949L3.51543 3.51463C3.26915 3.76082 3.03421 4.01821 2.81006 4.28502L7.39457 8.86954H8.87025V8.86959Z" fill="#D80027"/>
<path d="M15.1318 8.86946L20.4867 3.51456C20.2405 3.26827 19.9831 3.03334 19.7163 2.80923L15.1318 7.39374V8.86946Z" fill="#D80027"/>
</g>
<defs>
<clipPath id="clip0_2387_81304">
<rect width="24" height="24" fill="white"/>
</clipPath>
</defs>
</svg>
