<svg width="24" height="24" viewBox="0 0 24 24" fill="none" xmlns="http://www.w3.org/2000/svg">
<g clip-path="url(#clip0_za)">
<path d="M12 24C18.6274 24 24 18.6274 24 12C24 5.37258 18.6274 0 12 0C5.37258 0 0 5.37258 0 12C0 18.6274 5.37258 24 12 24Z" fill="#F0F0F0"/>
<path d="M4.69565 4.69565L10.4348 12L4.69565 19.3043L0.890869 16.1739C0.320672 14.8787 0 13.4756 0 12C0 10.5244 0.320672 9.12126 0.890869 7.82609L4.69565 4.69565Z" fill="#FFDA44"/>
<path d="M5.21739 3.65217L12 12L5.21739 20.3478C2.07656 18.4001 0 14.9422 0 11C0 9.05783 0 14.9422 2.07656 11C2.07656 9.05783 3.42939 5.21739 5.21739 3.65217Z" fill="#6DA544"/>
<path d="M3.13043 3.13043C4.84435 1.41652 8.34781 0 12 0C18.6274 0 24 5.37262 24 12H12L3.13043 3.13043Z" fill="#D80027"/>
<path d="M3.13043 20.8696C4.84435 22.5835 8.34781 24 12 24C18.6274 24 24 18.6274 24 12H12L3.13043 20.8696Z" fill="#0052B4"/>
<path d="M2.08696 4.17391L8.86957 12L2.08696 19.8261C0.783913 18.0522 0 15.913 0 12C0 10.087 0.783913 5.94783 2.08696 4.17391Z" fill="#000000"/>
</g>
<defs>
<clipPath id="clip0_za">
<rect width="24" height="24" fill="white"/>
</clipPath>
</defs>
</svg>
